<svg xmlns="http://www.w3.org/2000/svg" viewBox="0 0 90 90"><defs><style>.cls-1{fill:#87613e;}.cls-2{fill:#a67c52;}.cls-3{fill:#fff;}.cls-4{fill:#ffd900;}.cls-5{fill:#404041;}.cls-6{fill:#ffa400;}</style></defs><title>owl</title><g id="owl"><path class="cls-1" d="M19,43.27s-4.85-6.11-9.3-3-2.1,12.37,6.37,22.62c7,8.43,7.77,13.47,7.77,13.47a6.39,6.39,0,0,0,4.78-4.65C29.7,67.7,19,43.27,19,43.27Z"/><path class="cls-1" d="M71,43.27s4.85-6.11,9.3-3,2.1,12.37-6.37,22.62c-7,8.43-7.77,13.47-7.77,13.47a6.39,6.39,0,0,1-4.78-4.65C60.3,67.7,71,43.27,71,43.27Z"/><path class="cls-2" d="M73.15,23.09C67.08,9.7,53.67,7.5,45,7.5S22.92,9.7,16.85,23.09C10.25,37.66,19,58.91,22.46,65.48S38,82.5,45,82.5c6.59,0,19-10.44,22.54-17S79.75,37.66,73.15,23.09Z"/><path class="cls-3" d="M70.17,26.1,44.81,26a13.29,13.29,0,1,0,25.36.07Z"/><ellipse class="cls-4" cx="57.5" cy="29.98" rx="9.34" ry="9.38" transform="translate(6.67 70.24) rotate(-65.92)"/><path class="cls-5" d="M52.5,27.74A5.47,5.47,0,1,0,59.72,25,5.48,5.48,0,0,0,52.5,27.74Z"/><path class="cls-1" d="M62.9,17.86a13.27,13.27,0,0,0-5.14-1.16c-.43,0-.87,0-1.3,0A13.12,13.12,0,0,0,44.81,26l25.36.07A13.3,13.3,0,0,0,62.9,17.86Z"/><path class="cls-3" d="M19.83,26.1,45.19,26a13.29,13.29,0,1,1-25.36.07Z"/><ellipse class="cls-4" cx="32.5" cy="29.98" rx="9.38" ry="9.34" transform="translate(-9.4 15.87) rotate(-24.08)"/><path class="cls-5" d="M37.5,27.74A5.47,5.47,0,1,1,30.28,25,5.48,5.48,0,0,1,37.5,27.74Z"/><path class="cls-1" d="M27.1,17.86a13.27,13.27,0,0,1,5.14-1.16c.43,0,.87,0,1.3,0A13.12,13.12,0,0,1,45.19,26l-25.36.07A13.3,13.3,0,0,1,27.1,17.86Z"/><path class="cls-6" d="M49.69,40.53,45.88,47.1a.78.78,0,0,1-1.35,0l-3.83-6.61a1.56,1.56,0,0,1,0-1.55c.59-1.06,2-3.45,3.12-5.22a1.56,1.56,0,0,1,2.66,0l3.22,5.22A1.55,1.55,0,0,1,49.69,40.53Z"/></g></svg>